<svg id="outline" height="512" viewBox="0 0 64 64" width="512" xmlns="http://www.w3.org/2000/svg"><g id="Webcam"><path d="m45 38a17 17 0 0 0 0-34h-26a17 17 0 0 0 0 34h8v7h-2a13 13 0 0 0 -13 13v3a1 1 0 0 0 1 1h38a1 1 0 0 0 1-1v-3a13 13 0 0 0 -13-13h-2v-7zm-6 9a11 11 0 0 1 11 11v2h-36v-2a11 11 0 0 1 11-11zm-10-2v-7h6v7zm7-9h-17a15 15 0 1 1 0-30h26a15 15 0 1 1 0 30zm-4-25a10 10 0 1 0 10 10 10 10 0 0 0 -10-10zm0 18a8 8 0 1 1 8-8 8 8 0 0 1 -8 8zm0-12a4 4 0 1 0 4 4 4 4 0 0 0 -4-4zm0 6a2 2 0 1 1 2-2 2 2 0 0 1 -2 2zm-18-2a1 1 0 0 1 -1 1h-5a1 1 0 0 1 0-2h5a1 1 0 0 1 1 1zm6 0a1 1 0 0 1 -1 1h-2a1 1 0 0 1 0-2h2a1 1 0 0 1 1 1zm30 0a1 1 0 0 1 1-1h5a1 1 0 0 1 0 2h-5a1 1 0 0 1 -1-1zm-5 1a1 1 0 0 1 0-2h2a1 1 0 0 1 0 2zm-11 28.62a3.48 3.48 0 0 0 -2.62-.56 3.43 3.43 0 0 0 -2.25 1.45 3.48 3.48 0 0 0 -.56 2.62 3.5 3.5 0 0 0 6.32 1.36 3.48 3.48 0 0 0 .56-2.62 3.43 3.43 0 0 0 -1.45-2.25zm-.76 3.73a1.51 1.51 0 0 1 -1 .63 1.49 1.49 0 0 1 -1.12-.25 1.51 1.51 0 0 1 -.63-1 1.49 1.49 0 0 1 .25-1.12 1.51 1.51 0 0 1 1-.63l.26.02a1.46 1.46 0 0 1 .85.27 1.51 1.51 0 0 1 .63 1 1.49 1.49 0 0 1 -.25 1.08z"/></g></svg>