<svg width="512" height="512" viewBox="0 0 512 512" fill="none" xmlns="http://www.w3.org/2000/svg">
<g clip-path="url(#clip0_500_282)">
<path d="M255.745 15H437.142C445.158 14.9355 453.106 16.4679 460.523 19.5078C467.94 22.5476 474.678 27.034 480.343 32.7053C486.008 38.3766 490.487 45.1192 493.518 52.5398C496.55 59.9603 498.073 67.9103 498 75.9259V257.255C498 390.246 390.246 498 257.255 498H255.881C224.258 498.028 192.938 491.823 163.714 479.74C134.49 467.657 107.933 449.933 85.5626 427.582C63.1918 405.23 45.4455 378.688 33.3379 349.474C21.2304 320.26 14.999 288.946 15 257.323C15 123.954 122.573 16.3735 255.745 15Z" fill="black"/>
<path d="M255.744 122.581C194.667 122.581 145.152 172.088 145.152 233.172V308.37C145.59 328.497 161.801 344.708 181.928 345.145H213.21V258.764H170.948V234.614C173.513 189.136 211.15 153.56 256.71 153.56C302.271 153.56 339.816 189.069 342.382 234.614V258.764H299.516V345.206H327.779V346.579C327.477 365.25 312.421 380.314 293.818 380.54H260.061C257.314 380.54 254.295 381.914 254.295 384.653C254.362 386.161 254.99 387.589 256.058 388.657C257.125 389.724 258.553 390.353 260.061 390.419H294.022C318.21 390.268 337.779 370.699 337.93 346.511V343.764C346.009 341.945 353.22 337.411 358.363 330.92C363.506 324.429 366.269 316.371 366.193 308.09V234.614C367.566 172.322 318.164 122.648 255.601 122.648L255.744 122.581Z" fill="white"/>
</g>
<defs>
<clipPath id="clip0_500_282">
<rect width="483" height="483" fill="white" transform="translate(15 15)"/>
</clipPath>
</defs>
</svg>