<svg id="Layer_1" viewBox="0 0 512 512" xmlns="http://www.w3.org/2000/svg" data-name="Layer 1"><path d="m482.318 110.583h-452.636c-11.965 0-21.699 9.734-21.699 21.699v198.255c0 11.949 9.734 21.671 21.699 21.671h452.637c11.965 0 21.699-9.722 21.699-21.671v-198.255c0-11.965-9.734-21.699-21.699-21.699zm5.684 219.954c0 3.065-2.603 5.655-5.684 5.655h-452.636c-3.134 0-5.684-2.537-5.684-5.655v-198.255c0-3.081 2.603-5.684 5.684-5.684h452.637c3.081 0 5.684 2.603 5.684 5.684v198.255zm-361.05 36.028v26.845c0 4.423-3.585 8.008-8.008 8.008h-52.299c-4.423 0-8.008-3.585-8.008-8.008v-26.845c0-4.423 3.585-8.008 8.008-8.008s8.008 3.585 8.008 8.008v18.837h36.283v-18.837c0-4.423 3.585-8.008 8.008-8.008s8.008 3.585 8.008 8.008zm326.41 0v26.845c0 4.423-3.585 8.008-8.008 8.008h-52.328c-4.423 0-8.008-3.585-8.008-8.008v-26.845c0-4.423 3.585-8.008 8.008-8.008s8.008 3.585 8.008 8.008v18.837h36.312v-18.837c0-4.423 3.585-8.008 8.008-8.008s8.008 3.585 8.008 8.008zm-282.487-174.628h-109.134c-4.423 0-8.008 3.585-8.008 8.008v54.596c0 4.423 3.585 8.008 8.008 8.008h8.943v15.009c0 4.423 3.585 8.008 8.008 8.008h10.475v12.033c0 4.423 3.585 8.008 8.008 8.008h38.268c4.423 0 8.008-3.585 8.008-8.008v-12.033h10.474c4.423 0 8.008-3.585 8.008-8.008v-15.009h8.943c4.423 0 8.008-3.585 8.008-8.008v-54.596c0-4.423-3.585-8.008-8.008-8.008zm-8.008 54.596h-8.943c-4.423 0-8.008 3.585-8.008 8.008v15.009h-10.474c-4.423 0-8.008 3.585-8.008 8.008v12.033h-22.252v-12.033c0-4.423-3.585-8.008-8.008-8.008h-10.475v-15.009c0-4.423-3.585-8.008-8.008-8.008h-8.943v-38.58h93.118v38.58zm147.699-54.596h-109.134c-4.423 0-8.008 3.585-8.008 8.008v54.596c0 4.423 3.585 8.008 8.008 8.008h8.943v15.009c0 4.423 3.585 8.008 8.008 8.008h10.475v12.033c0 4.423 3.585 8.008 8.008 8.008h38.268c4.423 0 8.008-3.585 8.008-8.008v-12.033h10.474c4.423 0 8.008-3.585 8.008-8.008v-15.009h8.943c4.423 0 8.008-3.585 8.008-8.008v-54.596c0-4.423-3.585-8.008-8.008-8.008zm-8.008 54.596h-8.943c-4.423 0-8.008 3.585-8.008 8.008v15.009h-10.474c-4.423 0-8.008 3.585-8.008 8.008v12.033h-22.252v-12.033c0-4.423-3.585-8.008-8.008-8.008h-10.475v-15.009c0-4.423-3.585-8.008-8.008-8.008h-8.943v-38.58h93.118v38.58zm147.699-54.596h-109.162c-4.423 0-8.008 3.585-8.008 8.008v54.596c0 4.423 3.585 8.008 8.008 8.008h8.943v15.009c0 4.423 3.585 8.008 8.008 8.008h10.503v12.033c0 4.423 3.585 8.008 8.008 8.008h38.239c4.423 0 8.008-3.585 8.008-8.008v-12.033h10.502c4.423 0 8.008-3.585 8.008-8.008v-15.009h8.943c4.423 0 8.008-3.585 8.008-8.008v-54.596c0-4.423-3.585-8.008-8.008-8.008zm-8.008 54.596h-8.943c-4.423 0-8.008 3.585-8.008 8.008v15.009h-10.502c-4.423 0-8.008 3.585-8.008 8.008v12.033h-22.224v-12.033c0-4.423-3.585-8.008-8.008-8.008h-10.503v-15.009c0-4.423-3.585-8.008-8.008-8.008h-8.943v-38.58h93.146v38.58zm-310.733-81.737c0-4.423 3.585-8.008 8.008-8.008h13.521c4.423 0 8.008 3.585 8.008 8.008s-3.585 8.008-8.008 8.008h-13.521c-4.423 0-8.008-3.585-8.008-8.008zm-59.925 0c0-4.423 3.585-8.008 8.008-8.008h13.493c4.423 0 8.008 3.585 8.008 8.008s-3.585 8.008-8.008 8.008h-13.493c-4.423 0-8.008-3.585-8.008-8.008zm20.211 63.609c0-4.423 3.585-8.008 8.008-8.008h32.995c4.423 0 8.008 3.585 8.008 8.008s-3.585 8.008-8.008 8.008h-32.995c-4.423 0-8.008-3.585-8.008-8.008zm139.691 0c0-4.423 3.585-8.008 8.008-8.008h32.995c4.423 0 8.008 3.585 8.008 8.008s-3.585 8.008-8.008 8.008h-32.995c-4.423 0-8.008-3.585-8.008-8.008zm139.691 0c0-4.423 3.585-8.008 8.008-8.008h32.995c4.423 0 8.008 3.585 8.008 8.008s-3.585 8.008-8.008 8.008h-32.995c-4.423 0-8.008-3.585-8.008-8.008zm-102.444-63.609c0-4.423 3.585-8.008 8.008-8.008h13.493c4.423 0 8.008 3.585 8.008 8.008s-3.585 8.008-8.008 8.008h-13.493c-4.423 0-8.008-3.585-8.008-8.008zm-59.924 0c0-4.423 3.585-8.008 8.008-8.008h13.493c4.423 0 8.008 3.585 8.008 8.008s-3.585 8.008-8.008 8.008h-13.493c-4.423 0-8.008-3.585-8.008-8.008zm142.129 0c0-4.423 3.585-8.008 8.008-8.008h13.493c4.423 0 8.008 3.585 8.008 8.008s-3.585 8.008-8.008 8.008h-13.493c-4.423 0-8.008-3.585-8.008-8.008zm59.953 0c0-4.423 3.585-8.008 8.008-8.008h13.492c4.423 0 8.008 3.585 8.008 8.008s-3.585 8.008-8.008 8.008h-13.492c-4.423 0-8.008-3.585-8.008-8.008z"/></svg>