<svg width="512" height="512" viewBox="0 0 512 512" fill="none" xmlns="http://www.w3.org/2000/svg">
<g clip-path="url(#clip0_500_282)">
<path d="M117.02 391.525C127.431 398.019 144.738 405.237 163.039 405.237C179.702 405.237 195.185 400.407 208.011 392.169C208.011 392.169 208.038 392.169 208.065 392.143L256.499 361.875V471.167C248.825 471.167 241.097 469.074 234.389 464.888L117.02 391.525Z" fill="black"/>
<path d="M225.722 55.438L24.4721 282.448C8.93557 299.997 12.9874 326.508 33.1392 339.093C33.1392 339.093 107.629 385.649 117.02 391.525C127.432 398.019 144.739 405.237 163.039 405.237C179.703 405.237 195.186 400.407 208.012 392.169C208.012 392.169 208.039 392.17 208.066 392.143L256.5 361.875L139.399 288.673L256.527 156.546V41.8335C245.149 41.8335 233.772 46.3683 225.722 55.438Z" fill="black"/>
<path d="M139.398 288.673L140.794 289.532L256.499 361.875H256.526V156.573L256.499 156.546L139.398 288.673Z" fill="white"/>
<path d="M479.861 339.093C500.013 326.508 504.065 299.997 488.528 282.448L356.481 133.496C345.829 128.532 333.888 125.688 321.249 125.688C296.429 125.688 274.237 136.394 259.479 153.219L256.554 156.519L373.655 288.646L256.527 361.848V471.14C264.229 471.14 271.903 469.047 278.611 464.861L479.861 339.066V339.093Z" fill="black"/>
<path d="M256.527 41.8335V156.546L259.452 153.245C274.21 136.421 296.401 125.714 321.222 125.714C333.887 125.714 345.801 128.586 356.454 133.523L287.251 55.4648C279.228 46.3952 267.851 41.8603 256.5 41.8603L256.527 41.8335Z" fill="black"/>
<path d="M373.628 288.673L256.527 156.573V361.848L373.628 288.673Z" fill="white"/>
</g>
<defs>
<clipPath id="clip0_500_282">
<rect width="483" height="483" fill="white" transform="translate(15 15)"/>
</clipPath>
</defs>
</svg>
